# Blender v2.79 (sub 0) OBJ File: 'treetempl.blend'
# www.blender.org
mtllib tree1.mtl
o Cube
v 0.016896 -0.001235 -0.004900
v 0.016896 1.578490 -0.004900
v 0.085652 0.835512 -0.004900
v 0.016895 0.835512 0.059582
v -0.051861 0.835512 -0.004900
v 0.016896 0.835512 -0.069382
v 0.108215 0.000557 -0.004900
v 0.016896 0.000557 -0.090542
v 0.068463 0.835512 -0.053261
v 0.016896 0.000557 0.080742
v 0.068463 0.835512 0.043462
v -0.074423 0.000557 -0.004900
v -0.034672 0.835512 0.043461
v -0.034671 0.835512 -0.053261
v 0.068463 1.463072 -0.004899
v 0.016896 1.463072 -0.053261
v 0.016895 1.463072 0.043462
v -0.034672 1.463072 -0.004900
v 0.084540 0.003070 -0.068338
v 0.084539 0.003070 0.058539
v -0.050748 0.003070 0.058538
v -0.050748 0.003070 -0.068339
v 0.055094 1.300371 -0.040723
v 0.055094 1.300371 0.030924
v -0.021302 1.300371 0.030923
v -0.021302 1.300371 -0.040723
v 0.016896 1.567666 -0.029080
v -0.008888 1.567666 -0.004900
v 0.016896 1.567666 0.019281
v 0.042679 1.567666 -0.004900
v 0.061778 1.381722 -0.022811
v 0.061778 1.381722 0.013012
v 0.035995 1.381722 -0.046992
v -0.002203 1.381722 -0.046992
v 0.035994 1.381722 0.037193
v -0.002204 1.381722 0.037192
v -0.027987 1.381722 0.013012
v -0.027987 1.381722 -0.022811
v 0.039337 1.474694 0.016147
v -0.005546 1.474694 0.016146
v -0.005546 1.474694 -0.025946
v 0.039337 1.474694 -0.025946
v -0.010559 1.568040 -0.007005
v -0.036342 1.463447 -0.007005
v -0.029658 1.382096 -0.024917
v -0.007216 1.475068 -0.028051
v -0.020803 1.507658 -0.017778
v -0.030130 1.469820 -0.017778
v -0.027712 1.440390 -0.024257
v -0.019593 1.474024 -0.025391
v -0.131697 1.628384 -0.103150
v -0.135507 1.612927 -0.103150
v -0.134519 1.600905 -0.105797
v -0.131203 1.614644 -0.106260
v 0.047226 1.568685 -0.010629
v 0.073010 1.464091 -0.010629
v 0.066326 1.382741 -0.028541
v 0.043884 1.475713 -0.031676
v 0.059687 1.510597 -0.024257
v 0.069487 1.470844 -0.024257
v 0.066946 1.439925 -0.031065
v 0.058417 1.475261 -0.032256
v 0.257588 1.676801 -0.082537
v 0.261161 1.662307 -0.082537
v 0.260234 1.651034 -0.085019
v 0.257125 1.663918 -0.085453
v 0.016896 1.567666 0.019281
v 0.016895 1.463072 0.043462
v 0.035994 1.381722 0.037193
v -0.002204 1.381722 0.037192
v 0.039337 1.474694 0.016147
v -0.005546 1.474694 0.016146
v 0.016895 1.488591 0.034808
v 0.016895 1.460694 0.041257
v 0.021989 1.438997 0.039585
v 0.011802 1.438997 0.039585
v 0.022881 1.463794 0.033972
v 0.010910 1.463794 0.033972
v -0.037326 1.662565 0.264436
v -0.037326 1.634669 0.270886
v -0.032232 1.612972 0.269214
v -0.042420 1.612972 0.269214
v -0.031341 1.637769 0.263600
v -0.043311 1.637769 0.263600
v 0.117422 1.386129 0.112920
v 0.325230 1.544878 0.263900
v 0.038048 1.544878 0.357213
v -0.139442 1.544880 0.112920
v 0.038048 1.544878 -0.131372
v 0.325230 1.544878 -0.038059
v 0.196796 1.801746 0.357213
v -0.090385 1.801746 0.263900
v -0.090385 1.801746 -0.038059
v 0.196796 1.801746 -0.131372
v 0.374287 1.801745 0.112920
v 0.117422 1.960496 0.112920
v 0.070768 1.429019 0.256511
v 0.239568 1.429019 0.201663
v 0.192914 1.522329 0.345255
v 0.361714 1.522330 0.112920
v 0.239568 1.429019 0.024178
v -0.033558 1.429019 0.112920
v -0.080214 1.522330 0.256511
v 0.070768 1.429019 -0.030670
v -0.080214 1.522330 -0.030670
v 0.192914 1.522329 -0.119414
v 0.390550 1.673312 0.201664
v 0.390550 1.673312 0.024177
v 0.117422 1.673312 0.400104
v 0.286225 1.673312 0.345257
v -0.155705 1.673312 0.201664
v -0.051380 1.673312 0.345257
v -0.051380 1.673312 -0.119416
v -0.155705 1.673312 0.024177
v 0.286225 1.673312 -0.119416
v 0.117422 1.673312 -0.174263
v 0.315059 1.824295 0.256511
v 0.041931 1.824296 0.345255
v -0.126869 1.824295 0.112920
v 0.041931 1.824296 -0.119414
v 0.315059 1.824295 -0.030670
v 0.164077 1.917606 0.256511
v 0.268403 1.917605 0.112920
v -0.004723 1.917606 0.201663
v -0.004723 1.917606 0.024178
v 0.164077 1.917606 -0.030670
v -0.125317 1.433291 0.226719
v 0.082491 1.592041 0.377699
v -0.204691 1.592041 0.471011
v -0.382181 1.592042 0.226719
v -0.204691 1.592041 -0.017573
v 0.082491 1.592041 0.075740
v -0.045943 1.848909 0.471011
v -0.333125 1.848909 0.377699
v -0.333125 1.848909 0.075740
v -0.045943 1.848909 -0.017573
v 0.131547 1.848907 0.226719
v -0.125317 2.007658 0.226719
v -0.171971 1.476181 0.370310
v -0.003171 1.476181 0.315462
v -0.049825 1.569492 0.459054
v 0.118975 1.569492 0.226719
v -0.003171 1.476181 0.137976
v -0.276298 1.476182 0.226719
v -0.322953 1.569492 0.370310
v -0.171971 1.476181 0.083129
v -0.322953 1.569492 0.083129
v -0.049825 1.569492 -0.005615
v 0.147811 1.720475 0.315463
v 0.147811 1.720475 0.137976
v -0.125317 1.720475 0.513902
v 0.043485 1.720475 0.459055
v -0.398445 1.720475 0.315463
v -0.294119 1.720475 0.459055
v -0.294119 1.720475 -0.005617
v -0.398445 1.720475 0.137976
v 0.043485 1.720475 -0.005617
v -0.125317 1.720475 -0.060464
v 0.072320 1.871457 0.370310
v -0.200808 1.871458 0.459054
v -0.369609 1.871457 0.226719
v -0.200808 1.871458 -0.005615
v 0.072320 1.871457 0.083129
v -0.078662 1.964768 0.370310
v 0.025664 1.964768 0.226719
v -0.247462 1.964768 0.315462
v -0.247462 1.964768 0.137976
v -0.078662 1.964768 0.083129
v -0.007607 1.450077 -0.201611
v 0.248932 1.646053 -0.015227
v -0.105594 1.646053 0.099967
v -0.324705 1.646055 -0.201611
v -0.105594 1.646053 -0.503190
v 0.248932 1.646053 -0.387995
v 0.090380 1.963156 0.099967
v -0.264145 1.963156 -0.015227
v -0.264145 1.963156 -0.387995
v 0.090380 1.963156 -0.503190
v 0.309491 1.963155 -0.201611
v -0.007607 2.159132 -0.201611
v -0.065202 1.503025 -0.024350
v 0.143182 1.503025 -0.092058
v 0.085587 1.618216 0.085205
v 0.293971 1.618217 -0.201611
v 0.143182 1.503025 -0.311164
v -0.193992 1.503025 -0.201611
v -0.251589 1.618217 -0.024349
v -0.065202 1.503025 -0.378873
v -0.251589 1.618217 -0.378874
v 0.085587 1.618216 -0.488428
v 0.329569 1.804605 -0.092058
v 0.329569 1.804605 -0.311165
v -0.007607 1.804605 0.152916
v 0.200779 1.804605 0.085207
v -0.344783 1.804605 -0.092058
v -0.215993 1.804605 0.085207
v -0.215993 1.804605 -0.488430
v -0.344783 1.804605 -0.311165
v 0.200779 1.804605 -0.488430
v -0.007607 1.804605 -0.556139
v 0.236375 1.990992 -0.024349
v -0.100801 1.990993 0.085205
v -0.309185 1.990992 -0.201611
v -0.100801 1.990993 -0.488428
v 0.236375 1.990992 -0.378874
v 0.049988 2.106185 -0.024350
v 0.178779 2.106184 -0.201611
v -0.158395 2.106185 -0.092058
v -0.158395 2.106185 -0.311164
v 0.049988 2.106185 -0.378873
v -0.073239 1.094669 0.018407
v -0.115887 1.350294 0.209629
v -0.357429 1.235143 0.200947
v -0.317391 1.163976 -0.125538
v -0.051102 1.235143 -0.318631
v 0.073432 1.350294 -0.111485
v -0.386402 1.577591 0.183865
v -0.510936 1.462440 -0.023281
v -0.321617 1.462440 -0.344394
v -0.080074 1.577591 -0.335713
v -0.120113 1.648758 -0.009228
v -0.364265 1.718065 -0.153173
v -0.214733 1.122513 0.140762
v -0.072759 1.190196 0.145865
v -0.239802 1.272765 0.253160
v 0.013451 1.340450 0.069517
v 0.038519 1.190196 -0.042879
v -0.191200 1.080682 -0.051139
v -0.358243 1.163250 0.056154
v -0.034680 1.122513 -0.164635
v -0.178189 1.163250 -0.249245
v 0.051532 1.272765 -0.240985
v -0.100311 1.515883 0.129623
v 0.010968 1.515883 -0.059123
v -0.398807 1.406367 0.238018
v -0.256832 1.474051 0.243122
v -0.448472 1.296851 -0.075643
v -0.472008 1.338682 0.116261
v -0.180672 1.338682 -0.377888
v -0.337193 1.296851 -0.264389
v 0.034503 1.474051 -0.251027
v -0.038697 1.406367 -0.372784
v -0.259315 1.649484 0.114479
v -0.489036 1.539968 0.106219
v -0.450955 1.472284 -0.204283
v -0.197702 1.539968 -0.387926
v -0.079261 1.649484 -0.190920
v -0.402824 1.690221 0.029869
v -0.246304 1.732052 -0.083627
v -0.476023 1.622537 -0.091887
v -0.364745 1.622537 -0.280632
v -0.222771 1.690221 -0.275528
vn 0.0318 -0.9989 -0.0339
vn 0.0318 -0.9989 0.0339
vn -0.0318 -0.9989 0.0339
vn -0.0318 -0.9989 -0.0339
vn 0.6789 0.1227 -0.7239
vn -0.6789 0.1227 -0.7239
vn -0.6789 0.1227 0.7239
vn 0.6789 0.1227 0.7239
vn 0.9391 0.0249 -0.3427
vn 0.9194 0.0302 -0.3921
vn 0.9194 0.0302 0.3921
vn 0.9391 0.0249 0.3427
vn 0.3055 0.0236 0.9519
vn 0.3511 0.0288 0.9359
vn -0.3511 0.0288 0.9359
vn -0.3055 0.0236 0.9519
vn -0.9391 0.0249 0.3427
vn -0.9194 0.0302 0.3921
vn -0.9194 0.0302 -0.3921
vn -0.9391 0.0249 -0.3427
vn 0.3511 0.0288 -0.9359
vn 0.3055 0.0236 -0.9519
vn -0.3055 0.0236 -0.9519
vn -0.3511 0.0288 -0.9359
vn 0.6157 0.1380 0.7758
vn 0.6560 0.2836 0.6995
vn 0.0000 0.0000 1.0000
vn -0.6560 0.2836 0.6995
vn -0.6157 0.1380 0.7758
vn -0.7850 -0.1941 0.5884
vn -0.6560 0.2836 -0.6995
vn -0.7352 0.1394 -0.6633
vn 0.7352 0.1394 -0.6633
vn 0.6560 0.2837 -0.6995
vn -0.7493 -0.2021 -0.6306
vn -0.8957 0.2208 -0.3859
vn 0.7868 0.1630 -0.5953
vn 0.7493 -0.2021 -0.6306
vn -0.7534 0.1857 0.6308
vn 0.7149 0.1787 -0.6760
vn -0.2222 0.2077 -0.9526
vn -0.8745 0.0347 -0.4838
vn -0.2115 0.0181 -0.9772
vn -0.6157 0.1380 -0.7758
vn -0.7651 -0.1978 0.6128
vn 0.4589 -0.1403 -0.8773
vn -0.5147 0.1269 0.8479
vn -0.0412 -0.0436 -0.9982
vn 0.7533 0.1857 0.6309
vn 0.7849 -0.1941 0.5884
vn -0.7868 0.1631 -0.5953
vn 0.4829 -0.2260 0.8460
vn 0.9652 -0.0220 -0.2604
vn -0.0320 0.2218 -0.9746
vn 0.9625 0.2373 -0.1313
vn 0.6157 0.1380 -0.7758
vn -0.4367 0.2135 -0.8739
vn 0.2366 0.0583 0.9698
vn -0.1877 -0.0783 -0.9791
vn 0.6831 0.1407 0.7167
vn -0.6845 0.1375 0.7160
vn 0.9755 0.0146 0.2193
vn -0.8943 0.2288 -0.3845
vn 0.9358 0.2396 -0.2584
vn -0.6831 0.1407 0.7167
vn 0.6845 0.1375 0.7160
vn -0.9358 0.2396 -0.2584
vn 0.7352 0.1394 0.6634
vn -0.7352 0.1394 0.6633
vn 0.8889 -0.2388 0.3908
vn -0.9817 -0.0749 -0.1750
vn 0.9711 0.2326 0.0531
vn -0.9728 -0.2237 -0.0602
vn 0.1024 -0.9435 0.3151
vn 0.7002 -0.6617 0.2680
vn -0.2680 -0.9435 0.1947
vn -0.2680 -0.9435 -0.1947
vn 0.1024 -0.9435 -0.3151
vn 0.9050 -0.3304 0.2680
vn 0.0247 -0.3304 0.9435
vn -0.8897 -0.3304 0.3151
vn -0.5746 -0.3304 -0.7488
vn 0.5346 -0.3304 -0.7779
vn 0.8026 -0.1256 0.5831
vn -0.3066 -0.1256 0.9435
vn -0.9921 -0.1256 0.0000
vn -0.3066 -0.1256 -0.9435
vn 0.8026 -0.1256 -0.5831
vn 0.4089 0.6617 0.6284
vn -0.4713 0.6617 0.5831
vn -0.7002 0.6617 -0.2680
vn 0.0385 0.6617 -0.7488
vn 0.7240 0.6617 -0.1947
vn 0.2680 0.9435 -0.1947
vn 0.4911 0.7947 -0.3568
vn 0.4089 0.6617 -0.6284
vn -0.1024 0.9435 -0.3151
vn -0.1876 0.7947 -0.5773
vn -0.4713 0.6617 -0.5831
vn -0.3313 0.9435 0.0000
vn -0.6071 0.7947 0.0000
vn -0.7002 0.6617 0.2680
vn -0.1024 0.9435 0.3151
vn -0.1876 0.7947 0.5773
vn 0.0385 0.6617 0.7488
vn 0.2680 0.9435 0.1947
vn 0.4911 0.7947 0.3568
vn 0.7240 0.6617 0.1947
vn 0.8897 0.3304 -0.3151
vn 0.7947 0.1876 -0.5773
vn 0.5746 0.3304 -0.7488
vn -0.0247 0.3304 -0.9435
vn -0.3035 0.1876 -0.9342
vn -0.5346 0.3304 -0.7779
vn -0.9050 0.3304 -0.2680
vn -0.9822 0.1876 0.0000
vn -0.9050 0.3304 0.2680
vn -0.5346 0.3304 0.7779
vn -0.3035 0.1876 0.9342
vn -0.0247 0.3304 0.9435
vn 0.5746 0.3304 0.7488
vn 0.7947 0.1876 0.5773
vn 0.8897 0.3304 0.3151
vn 0.3066 0.1256 -0.9435
vn 0.3035 -0.1876 -0.9342
vn 0.0247 -0.3304 -0.9435
vn -0.8026 0.1256 -0.5831
vn -0.7947 -0.1876 -0.5773
vn -0.8897 -0.3304 -0.3151
vn -0.8026 0.1256 0.5831
vn -0.7947 -0.1876 0.5773
vn -0.5746 -0.3304 0.7488
vn 0.3066 0.1256 0.9435
vn 0.3035 -0.1876 0.9342
vn 0.5346 -0.3304 0.7779
vn 0.9921 0.1256 0.0000
vn 0.9822 -0.1876 0.0000
vn 0.9050 -0.3304 -0.2680
vn 0.4713 -0.6617 -0.5831
vn 0.1876 -0.7947 -0.5773
vn -0.0385 -0.6617 -0.7488
vn -0.4089 -0.6617 -0.6284
vn -0.4911 -0.7947 -0.3568
vn -0.7240 -0.6617 -0.1947
vn -0.7240 -0.6617 0.1947
vn -0.4911 -0.7947 0.3568
vn -0.4089 -0.6617 0.6284
vn 0.7002 -0.6617 -0.2680
vn 0.6071 -0.7947 0.0000
vn 0.3313 -0.9435 0.0000
vn -0.0385 -0.6617 0.7488
vn 0.1876 -0.7947 0.5773
vn 0.4713 -0.6617 0.5831
vn 0.3389 -0.7534 0.5634
vn 0.7302 -0.0738 0.6792
vn -0.0091 -0.9772 0.2119
vn 0.1810 -0.9772 -0.1105
vn 0.6571 -0.7534 0.0238
vn 0.7209 0.2454 0.6482
vn -0.3160 -0.2731 0.9086
vn -0.7326 -0.6598 -0.1673
vn -0.1043 -0.5891 -0.8013
vn 0.9754 0.0721 -0.2081
vn 0.4903 0.3413 0.8019
vn -0.7297 -0.3085 0.6102
vn -0.7193 -0.5503 -0.4241
vn 0.1806 -0.3085 -0.9339
vn 0.9391 0.3413 0.0408
vn -0.1249 0.7944 0.5944
vn -0.9739 0.2252 0.0299
vn -0.7302 0.0738 -0.6792
vn 0.1514 0.6082 -0.7792
vn 0.4988 0.8590 0.1156
vn 0.0091 0.9772 -0.2119
vn 0.3545 0.9217 -0.1574
vn 0.4596 0.7944 -0.3970
vn -0.3389 0.7534 -0.5634
vn -0.2366 0.5564 -0.7965
vn -0.4453 0.2252 -0.8666
vn -0.7117 0.5634 -0.4196
vn -0.8384 0.2299 -0.4943
vn -0.9478 0.0738 -0.3101
vn -0.6571 0.7534 -0.0238
vn -0.8115 0.5564 0.1786
vn -0.6085 0.6082 0.5097
vn -0.1810 0.9772 0.1105
vn 0.0338 0.9217 0.3864
vn 0.3426 0.8590 0.3805
vn 0.7326 0.6598 0.1673
vn 0.8363 0.5481 -0.0169
vn 0.7516 0.5891 -0.2967
vn 0.3160 0.2731 -0.9086
vn 0.0573 -0.0449 -0.9973
vn -0.2901 -0.0721 -0.9543
vn -0.7209 -0.2454 -0.6482
vn -0.8040 -0.3590 -0.4740
vn -0.9162 -0.2454 -0.3169
vn -0.9754 -0.0721 0.2081
vn -0.8450 -0.0449 0.5329
vn -0.6421 0.2731 0.7164
vn 0.1043 0.5891 0.8013
vn 0.3901 0.5481 0.7399
vn 0.5011 0.6598 0.5600
vn 0.7297 0.3085 -0.6102
vn 0.8450 0.0449 -0.5329
vn 0.6421 -0.2731 -0.7164
vn -0.4903 -0.3413 -0.8019
vn -0.3901 -0.5481 -0.7399
vn -0.5011 -0.6598 -0.5600
vn -0.9391 -0.3413 -0.0408
vn -0.8363 -0.5481 0.0169
vn -0.7516 -0.5891 0.2967
vn -0.1806 0.3085 0.9339
vn -0.0573 0.0449 0.9973
vn 0.2901 0.0721 0.9543
vn 0.7193 0.5503 0.4241
vn 0.8040 0.3590 0.4740
vn 0.9162 0.2454 0.3169
vn 0.9739 -0.2252 -0.0299
vn 0.8115 -0.5564 -0.1786
vn 0.6085 -0.6082 -0.5097
vn 0.1249 -0.7944 -0.5944
vn -0.0338 -0.9217 -0.3864
vn -0.3426 -0.8590 -0.3805
vn -0.4988 -0.8590 -0.1156
vn -0.3545 -0.9217 0.1574
vn -0.4596 -0.7944 0.3970
vn 0.9478 -0.0738 0.3101
vn 0.8384 -0.2299 0.4943
vn 0.7117 -0.5634 0.4196
vn -0.1514 -0.6082 0.7792
vn 0.2366 -0.5564 0.7965
vn 0.4453 -0.2252 0.8666
usemtl Material
s off
f 1//1 8//1 19//1 7//1
f 1//2 7//2 20//2 10//2
f 1//3 10//3 21//3 12//3
f 1//4 12//4 22//4 8//4
f 42//5 31//5 23//5 33//5
f 41//6 34//6 26//6 38//6
f 40//7 37//7 25//7 36//7
f 39//8 35//8 24//8 32//8
f 3//9 7//9 19//9 9//9
f 3//10 9//10 23//10 31//10 15//10
f 3//11 15//11 32//11 24//11 11//11
f 3//12 11//12 20//12 7//12
f 4//13 10//13 20//13 11//13
f 4//14 11//14 24//14 35//14 17//14
f 4//15 17//15 36//15 25//15 13//15
f 4//16 13//16 21//16 10//16
f 5//17 12//17 21//17 13//17
f 5//18 13//18 25//18 37//18 18//18
f 5//19 18//19 38//19 26//19 14//19
f 5//20 14//20 22//20 12//20
f 6//21 16//21 33//21 23//21 9//21
f 6//22 9//22 19//22 8//22
f 6//23 8//23 22//23 14//23
f 6//24 14//24 26//24 34//24 16//24
f 30//25 39//25 32//25 15//25
f 2//26 29//26 39//26 30//26
f 39//27 29//27 67//27 71//27
f 35//27 39//27 71//27 69//27
f 2//28 28//28 40//28 29//28
f 28//29 18//29 37//29 40//29
f 38//30 18//30 44//30 45//30
f 2//31 27//31 41//31 28//31
f 27//32 16//32 34//32 41//32
f 27//33 42//33 33//33 16//33
f 2//34 30//34 42//34 27//34
f 31//35 42//35 58//35 57//35
f 44//36 43//36 47//36 48//36
f 28//37 41//37 46//37 43//37
f 41//38 38//38 45//38 46//38
f 18//39 28//39 43//39 44//39
f 47//40 50//40 54//40 51//40
f 43//41 46//41 50//41 47//41
f 45//42 44//42 48//42 49//42
f 46//43 45//43 49//43 50//43
f 51//44 54//44 53//44 52//44
f 49//45 48//45 52//45 53//45
f 50//46 49//46 53//46 54//46
f 48//47 47//47 51//47 52//47
f 57//48 58//48 62//48 61//48
f 30//49 15//49 56//49 55//49
f 15//50 31//50 57//50 56//50
f 42//51 30//51 55//51 58//51
f 60//52 61//52 65//52 64//52
f 56//53 57//53 61//53 60//53
f 58//54 55//54 59//54 62//54
f 55//55 56//55 60//55 59//55
f 63//56 64//56 65//56 66//56
f 62//57 59//57 63//57 66//57
f 59//58 60//58 64//58 63//58
f 61//59 62//59 66//59 65//59
f 71//60 67//60 73//60 77//60
f 72//61 70//61 76//61 78//61
f 36//27 17//27 68//27 70//27
f 29//27 40//27 72//27 67//27
f 17//27 35//27 69//27 68//27
f 40//27 36//27 70//27 72//27
f 75//62 77//62 83//62 81//62
f 73//63 78//63 84//63 79//63
f 68//64 69//64 75//64 74//64
f 67//65 72//65 78//65 73//65
f 69//66 71//66 77//66 75//66
f 70//67 68//67 74//67 76//67
f 79//68 80//68 81//68 83//68
f 79//69 84//69 82//69 80//69
f 76//70 74//70 80//70 82//70
f 78//71 76//71 82//71 84//71
f 77//72 73//72 79//72 83//72
f 74//73 75//73 81//73 80//73
usemtl Material.001
f 85//74 98//74 97//74
f 86//75 98//75 100//75
f 85//76 97//76 102//76
f 85//77 102//77 104//77
f 85//78 104//78 101//78
f 86//79 100//79 107//79
f 87//80 99//80 109//80
f 88//81 103//81 111//81
f 89//82 105//82 113//82
f 90//83 106//83 115//83
f 86//84 107//84 110//84
f 87//85 109//85 112//85
f 88//86 111//86 114//86
f 89//87 113//87 116//87
f 90//88 115//88 108//88
f 91//89 117//89 122//89
f 92//90 118//90 124//90
f 93//91 119//91 125//91
f 94//92 120//92 126//92
f 95//93 121//93 123//93
f 123//94 126//94 96//94
f 123//95 121//95 126//95
f 121//96 94//96 126//96
f 126//97 125//97 96//97
f 126//98 120//98 125//98
f 120//99 93//99 125//99
f 125//100 124//100 96//100
f 125//101 119//101 124//101
f 119//102 92//102 124//102
f 124//103 122//103 96//103
f 124//104 118//104 122//104
f 118//105 91//105 122//105
f 122//106 123//106 96//106
f 122//107 117//107 123//107
f 117//108 95//108 123//108
f 108//109 121//109 95//109
f 108//110 115//110 121//110
f 115//111 94//111 121//111
f 116//112 120//112 94//112
f 116//113 113//113 120//113
f 113//114 93//114 120//114
f 114//115 119//115 93//115
f 114//116 111//116 119//116
f 111//117 92//117 119//117
f 112//118 118//118 92//118
f 112//119 109//119 118//119
f 109//120 91//120 118//120
f 110//121 117//121 91//121
f 110//122 107//122 117//122
f 107//123 95//123 117//123
f 115//124 116//124 94//124
f 115//125 106//125 116//125
f 106//126 89//126 116//126
f 113//127 114//127 93//127
f 113//128 105//128 114//128
f 105//129 88//129 114//129
f 111//130 112//130 92//130
f 111//131 103//131 112//131
f 103//132 87//132 112//132
f 109//133 110//133 91//133
f 109//134 99//134 110//134
f 99//135 86//135 110//135
f 107//136 108//136 95//136
f 107//137 100//137 108//137
f 100//138 90//138 108//138
f 101//139 106//139 90//139
f 101//140 104//140 106//140
f 104//141 89//141 106//141
f 104//142 105//142 89//142
f 104//143 102//143 105//143
f 102//144 88//144 105//144
f 102//145 103//145 88//145
f 102//146 97//146 103//146
f 97//147 87//147 103//147
f 100//148 101//148 90//148
f 100//149 98//149 101//149
f 98//150 85//150 101//150
f 97//151 99//151 87//151
f 97//152 98//152 99//152
f 98//153 86//153 99//153
f 127//74 140//74 139//74
f 128//75 140//75 142//75
f 127//76 139//76 144//76
f 127//77 144//77 146//77
f 127//78 146//78 143//78
f 128//79 142//79 149//79
f 129//80 141//80 151//80
f 130//81 145//81 153//81
f 131//82 147//82 155//82
f 132//83 148//83 157//83
f 128//84 149//84 152//84
f 129//85 151//85 154//85
f 130//86 153//86 156//86
f 131//87 155//87 158//87
f 132//88 157//88 150//88
f 133//89 159//89 164//89
f 134//90 160//90 166//90
f 135//91 161//91 167//91
f 136//92 162//92 168//92
f 137//93 163//93 165//93
f 165//94 168//94 138//94
f 165//95 163//95 168//95
f 163//96 136//96 168//96
f 168//97 167//97 138//97
f 168//98 162//98 167//98
f 162//99 135//99 167//99
f 167//100 166//100 138//100
f 167//101 161//101 166//101
f 161//102 134//102 166//102
f 166//103 164//103 138//103
f 166//104 160//104 164//104
f 160//105 133//105 164//105
f 164//106 165//106 138//106
f 164//107 159//107 165//107
f 159//108 137//108 165//108
f 150//109 163//109 137//109
f 150//110 157//110 163//110
f 157//111 136//111 163//111
f 158//112 162//112 136//112
f 158//113 155//113 162//113
f 155//114 135//114 162//114
f 156//115 161//115 135//115
f 156//116 153//116 161//116
f 153//117 134//117 161//117
f 154//118 160//118 134//118
f 154//119 151//119 160//119
f 151//120 133//120 160//120
f 152//121 159//121 133//121
f 152//122 149//122 159//122
f 149//123 137//123 159//123
f 157//124 158//124 136//124
f 157//125 148//125 158//125
f 148//126 131//126 158//126
f 155//127 156//127 135//127
f 155//128 147//128 156//128
f 147//129 130//129 156//129
f 153//130 154//130 134//130
f 153//131 145//131 154//131
f 145//132 129//132 154//132
f 151//133 152//133 133//133
f 151//134 141//134 152//134
f 141//135 128//135 152//135
f 149//136 150//136 137//136
f 149//137 142//137 150//137
f 142//138 132//138 150//138
f 143//139 148//139 132//139
f 143//140 146//140 148//140
f 146//141 131//141 148//141
f 146//142 147//142 131//142
f 146//143 144//143 147//143
f 144//144 130//144 147//144
f 144//145 145//145 130//145
f 144//146 139//146 145//146
f 139//147 129//147 145//147
f 142//148 143//148 132//148
f 142//149 140//149 143//149
f 140//150 127//150 143//150
f 139//151 141//151 129//151
f 139//152 140//152 141//152
f 140//153 128//153 141//153
f 169//74 182//74 181//74
f 170//75 182//75 184//75
f 169//76 181//76 186//76
f 169//77 186//77 188//77
f 169//78 188//78 185//78
f 170//79 184//79 191//79
f 171//80 183//80 193//80
f 172//81 187//81 195//81
f 173//82 189//82 197//82
f 174//83 190//83 199//83
f 170//84 191//84 194//84
f 171//85 193//85 196//85
f 172//86 195//86 198//86
f 173//87 197//87 200//87
f 174//88 199//88 192//88
f 175//89 201//89 206//89
f 176//90 202//90 208//90
f 177//91 203//91 209//91
f 178//92 204//92 210//92
f 179//93 205//93 207//93
f 207//94 210//94 180//94
f 207//95 205//95 210//95
f 205//96 178//96 210//96
f 210//97 209//97 180//97
f 210//98 204//98 209//98
f 204//99 177//99 209//99
f 209//100 208//100 180//100
f 209//101 203//101 208//101
f 203//102 176//102 208//102
f 208//103 206//103 180//103
f 208//104 202//104 206//104
f 202//105 175//105 206//105
f 206//106 207//106 180//106
f 206//107 201//107 207//107
f 201//108 179//108 207//108
f 192//109 205//109 179//109
f 192//110 199//110 205//110
f 199//111 178//111 205//111
f 200//112 204//112 178//112
f 200//113 197//113 204//113
f 197//114 177//114 204//114
f 198//115 203//115 177//115
f 198//116 195//116 203//116
f 195//117 176//117 203//117
f 196//118 202//118 176//118
f 196//119 193//119 202//119
f 193//120 175//120 202//120
f 194//121 201//121 175//121
f 194//122 191//122 201//122
f 191//123 179//123 201//123
f 199//124 200//124 178//124
f 199//125 190//125 200//125
f 190//126 173//126 200//126
f 197//127 198//127 177//127
f 197//128 189//128 198//128
f 189//129 172//129 198//129
f 195//130 196//130 176//130
f 195//131 187//131 196//131
f 187//132 171//132 196//132
f 193//133 194//133 175//133
f 193//134 183//134 194//134
f 183//135 170//135 194//135
f 191//136 192//136 179//136
f 191//137 184//137 192//137
f 184//138 174//138 192//138
f 185//139 190//139 174//139
f 185//140 188//140 190//140
f 188//141 173//141 190//141
f 188//142 189//142 173//142
f 188//143 186//143 189//143
f 186//144 172//144 189//144
f 186//145 187//145 172//145
f 186//146 181//146 187//146
f 181//147 171//147 187//147
f 184//148 185//148 174//148
f 184//149 182//149 185//149
f 182//150 169//150 185//150
f 181//151 183//151 171//151
f 181//152 182//152 183//152
f 182//153 170//153 183//153
f 211//154 224//154 223//154
f 212//155 224//155 226//155
f 211//156 223//156 228//156
f 211//157 228//157 230//157
f 211//158 230//158 227//158
f 212//159 226//159 233//159
f 213//160 225//160 235//160
f 214//161 229//161 237//161
f 215//162 231//162 239//162
f 216//163 232//163 241//163
f 212//164 233//164 236//164
f 213//165 235//165 238//165
f 214//166 237//166 240//166
f 215//167 239//167 242//167
f 216//168 241//168 234//168
f 217//169 243//169 248//169
f 218//170 244//170 250//170
f 219//171 245//171 251//171
f 220//172 246//172 252//172
f 221//173 247//173 249//173
f 249//174 252//174 222//174
f 249//175 247//175 252//175
f 247//176 220//176 252//176
f 252//177 251//177 222//177
f 252//178 246//178 251//178
f 246//179 219//179 251//179
f 251//180 250//180 222//180
f 251//181 245//181 250//181
f 245//182 218//182 250//182
f 250//183 248//183 222//183
f 250//184 244//184 248//184
f 244//185 217//185 248//185
f 248//186 249//186 222//186
f 248//187 243//187 249//187
f 243//188 221//188 249//188
f 234//189 247//189 221//189
f 234//190 241//190 247//190
f 241//191 220//191 247//191
f 242//192 246//192 220//192
f 242//193 239//193 246//193
f 239//194 219//194 246//194
f 240//195 245//195 219//195
f 240//196 237//196 245//196
f 237//197 218//197 245//197
f 238//198 244//198 218//198
f 238//199 235//199 244//199
f 235//200 217//200 244//200
f 236//201 243//201 217//201
f 236//202 233//202 243//202
f 233//203 221//203 243//203
f 241//204 242//204 220//204
f 241//205 232//205 242//205
f 232//206 215//206 242//206
f 239//207 240//207 219//207
f 239//208 231//208 240//208
f 231//209 214//209 240//209
f 237//210 238//210 218//210
f 237//211 229//211 238//211
f 229//212 213//212 238//212
f 235//213 236//213 217//213
f 235//214 225//214 236//214
f 225//215 212//215 236//215
f 233//216 234//216 221//216
f 233//217 226//217 234//217
f 226//218 216//218 234//218
f 227//219 232//219 216//219
f 227//220 230//220 232//220
f 230//221 215//221 232//221
f 230//222 231//222 215//222
f 230//223 228//223 231//223
f 228//224 214//224 231//224
f 228//225 229//225 214//225
f 228//226 223//226 229//226
f 223//227 213//227 229//227
f 226//228 227//228 216//228
f 226//229 224//229 227//229
f 224//230 211//230 227//230
f 223//231 225//231 213//231
f 223//232 224//232 225//232
f 224//233 212//233 225//233
