# Blender v2.79 (sub 0) OBJ File: 'treetempl.blend'
# www.blender.org
mtllib tree4.mtl
o Cube
v 0.020349 -0.001235 -0.038215
v 0.019696 1.672259 0.116525
v 0.089106 0.835512 0.116727
v 0.020349 0.835512 0.181208
v -0.048407 0.835512 0.116726
v 0.020349 0.835512 0.052245
v 0.111668 0.000557 -0.038215
v 0.020349 0.000557 -0.123857
v 0.071917 0.835512 0.068365
v 0.020349 0.000557 0.047427
v 0.071916 0.835512 0.165088
v -0.070970 0.000557 -0.038215
v -0.031218 0.835512 0.165088
v -0.031218 0.835512 0.068365
v 0.071263 1.463072 0.179540
v 0.019696 1.463072 0.131179
v 0.019696 1.463072 0.227901
v -0.031871 1.463072 0.179540
v 0.087993 0.003070 -0.101653
v 0.087993 0.003070 0.025224
v -0.047295 0.003070 0.025223
v -0.047294 0.003070 -0.101653
v 0.057894 1.300371 0.143717
v 0.057894 1.300371 0.215363
v -0.018502 1.300371 0.215363
v -0.018502 1.300371 0.143717
v 0.008301 1.497442 0.176631
v 0.134431 1.548764 0.268269
v -0.039876 1.548764 0.324906
v -0.147604 1.548764 0.176631
v -0.039876 1.548764 0.028357
v 0.134431 1.548764 0.084993
v 0.056477 1.631806 0.324906
v -0.117829 1.631806 0.268269
v -0.117829 1.631806 0.084993
v 0.056477 1.631806 0.028357
v 0.164206 1.631806 0.176631
v 0.008301 1.665076 0.176631
v -0.020016 1.511307 0.263784
v 0.082438 1.511307 0.230494
v 0.054121 1.541474 0.317648
v 0.156575 1.541474 0.176631
v 0.082438 1.511307 0.122768
v -0.083338 1.511308 0.176631
v -0.111656 1.541474 0.263785
v -0.020016 1.511307 0.089478
v -0.111656 1.541474 0.089478
v 0.054121 1.541474 0.035614
v 0.174077 1.590285 0.230495
v 0.174077 1.590285 0.122768
v 0.044391 1.618751 0.330083
v 0.110756 1.590285 0.317649
v -0.157476 1.590285 0.230495
v -0.127759 1.618751 0.283781
v -0.094155 1.601380 0.062665
v -0.157476 1.590285 0.122768
v 0.110756 1.590285 0.035614
v 0.008301 1.590285 0.002324
v 0.128257 1.639096 0.263785
v -0.037519 1.667562 0.296792
v -0.157498 1.629495 0.112975
v -0.037519 1.657577 0.063743
v 0.128257 1.639096 0.089478
v 0.036618 1.669263 0.263784
v 0.099940 1.669263 0.176631
v -0.065836 1.669263 0.230494
v -0.012635 1.662725 0.122768
v 0.033875 1.669263 0.121381
v -0.027523 1.662219 -0.135498
v -0.082300 1.675459 -0.102207
v -0.146283 1.662219 -0.102208
v -0.143542 1.607382 -0.312803
v -0.149355 1.613573 -0.308580
v -0.156538 1.607382 -0.308580
v -0.010929 1.658017 -0.024795
v 0.078965 1.597651 -0.060182
v 0.035425 1.651289 0.000940
v 0.031115 1.611648 -0.201045
v 0.099718 1.594360 -0.217287
v 0.084139 1.612584 -0.211527
v 0.072975 1.540763 -0.263883
v 0.083265 1.536452 -0.267934
v 0.061933 1.540997 -0.260938
v -0.194539 1.653718 0.022782
v -0.172395 1.628256 -0.068856
v -0.112733 1.683885 -0.031081
v -0.326169 1.573395 -0.161380
v -0.304025 1.566105 -0.253018
v -0.252032 1.603562 -0.215243
v -0.205611 1.657608 0.152365
v -0.257604 1.620152 0.190140
v -0.279748 1.613036 0.069952
v -0.374036 1.590349 0.080507
v -0.401939 1.564813 0.100779
v -0.413823 1.568726 0.051601
v -0.173626 1.682035 0.502714
v -0.116991 1.716335 0.449331
v -0.071171 1.682035 0.536004
v -0.179774 1.605044 0.725735
v -0.165975 1.622135 0.712995
v -0.154811 1.605044 0.733845
v 0.173028 1.660529 0.157843
v 0.109706 1.660529 0.048569
v 0.201346 1.630362 0.048569
v 0.331272 1.638253 0.109516
v 0.267951 1.638254 0.030236
v 0.474479 1.608087 0.050305
v 0.485192 1.573341 0.057975
v 0.528047 1.589004 0.006511
v 0.513510 1.594836 0.040166
v 0.514642 1.545149 0.033590
v 0.532429 1.551650 0.012230
v 0.526395 1.554070 0.026198
v 0.202093 1.724134 0.146197
v 0.110454 1.748950 0.146197
v 0.138772 1.724134 0.306440
v 0.498766 1.691049 0.193383
v 0.407127 1.683057 0.193383
v 0.435445 1.669191 0.353626
v 0.656312 1.509557 0.295303
v 0.661662 1.484797 0.295885
v 0.651228 1.491476 0.317988
v 0.137963 1.718325 0.384750
v 0.138203 1.644322 0.405423
v 0.073781 1.678559 0.430339
v 0.215748 1.644616 0.557538
v 0.230233 1.590051 0.570456
v 0.171873 1.619767 0.586025
v 0.178804 1.726348 -0.046496
v 0.132107 1.718073 -0.095109
v 0.261311 1.676798 -0.035633
v 0.253742 1.696081 -0.093358
v 0.207045 1.687807 -0.141970
v 0.338992 1.646532 -0.114396
v 0.420643 1.568260 -0.261147
v 0.411294 1.566604 -0.270879
v 0.432616 1.558341 -0.265359
vn 0.0318 -0.9989 -0.0339
vn 0.0318 -0.9989 0.0339
vn -0.0318 -0.9989 0.0339
vn -0.0318 -0.9989 -0.0339
vn 0.6840 0.0169 -0.7293
vn -0.6840 0.0169 -0.7293
vn -0.6614 0.2554 0.7052
vn 0.6614 0.2554 0.7052
vn 0.9362 0.0880 -0.3402
vn 0.8711 0.0866 -0.4835
vn 0.9440 -0.0066 0.3299
vn 0.9382 -0.0390 0.3438
vn 0.3054 -0.1513 0.9401
vn 0.1596 -0.0852 0.9835
vn -0.1590 -0.0856 0.9836
vn -0.3054 -0.1513 0.9401
vn -0.9382 -0.0390 0.3438
vn -0.9451 -0.0085 0.3266
vn -0.8735 0.0840 -0.4795
vn -0.9362 0.0880 -0.3402
vn 0.5038 0.1274 -0.8544
vn 0.2963 0.1969 -0.9346
vn -0.2963 0.1969 -0.9346
vn -0.5022 0.1264 -0.8555
vn 0.0568 -0.9830 0.1748
vn 0.4826 -0.8562 0.1847
vn -0.1487 -0.9830 0.1081
vn -0.1487 -0.9830 -0.1081
vn 0.0568 -0.9830 -0.1748
vn 0.8013 -0.5492 0.2373
vn 0.0645 -0.1506 0.9865
vn -0.7877 -0.5492 0.2790
vn -0.6312 -0.1557 -0.7598
vn 0.4733 -0.5492 -0.6887
vn 0.7871 -0.2313 0.5718
vn -0.2525 0.2346 0.9387
vn -0.9729 -0.2313 0.0000
vn -0.5035 0.0432 -0.8629
vn 0.7871 -0.2313 -0.5718
vn 0.2818 0.8562 0.4331
vn -0.4607 0.8602 0.2188
vn -0.2053 0.9350 0.2892
vn 0.0157 0.9965 -0.0815
vn 0.4990 0.8562 -0.1342
vn -0.0456 0.9975 0.0545
vn -0.3410 -0.8874 -0.3103
vn 0.1852 0.9263 -0.3280
vn -0.1027 -0.9593 -0.2629
vn -0.1399 0.9898 -0.0273
vn -0.2954 0.9545 0.0413
vn 0.0193 0.9985 -0.0511
vn -0.2102 0.9641 -0.1623
vn 0.1243 0.8731 -0.4714
vn -0.2048 -0.9737 0.1000
vn -0.0097 0.9995 0.0298
vn 0.1885 0.8634 0.4679
vn 0.4498 -0.8630 0.2302
vn 0.3049 0.9263 0.2215
vn 0.4990 0.8562 0.1342
vn 0.7877 0.5492 -0.2790
vn 0.7615 0.3375 -0.5533
vn 0.5088 0.5492 -0.6630
vn -0.1199 0.6235 -0.7726
vn -0.4727 0.8160 0.3326
vn -0.3459 0.3651 -0.8643
vn -0.5567 -0.2016 -0.8059
vn -1.0000 -0.0006 0.0000
vn -0.7915 0.5797 0.1936
vn -0.4834 0.7972 0.3616
vn 0.5298 0.8478 0.0232
vn -0.0977 0.4437 0.8908
vn 0.5088 0.5492 0.6630
vn 0.7615 0.3375 0.5533
vn 0.7877 0.5492 0.2790
vn 0.3006 0.2313 -0.9253
vn 0.2909 -0.3375 -0.8952
vn 0.0219 -0.5492 -0.8354
vn -0.6882 -0.0030 -0.7256
vn -0.6703 -0.1311 -0.7304
vn -0.7877 -0.5492 -0.2790
vn -0.7524 0.6550 0.0697
vn -0.7516 -0.3076 0.5835
vn -0.5965 -0.3153 0.7381
vn 0.2449 0.1529 0.9574
vn 0.1229 -0.1426 0.9821
vn 0.4733 -0.5492 0.6887
vn 0.9729 0.2313 0.0000
vn 0.9413 -0.3375 0.0000
vn 0.8013 -0.5492 -0.2373
vn 0.3248 -0.8562 -0.4019
vn 0.1165 -0.9263 -0.3584
vn -0.0266 -0.8562 -0.5160
vn -0.2818 -0.8562 -0.4331
vn -0.3049 -0.9263 -0.2215
vn -0.4990 -0.8562 -0.1342
vn -0.4990 -0.8562 0.1342
vn -0.3049 -0.9263 0.2215
vn -0.2818 -0.8562 0.4331
vn 0.4826 -0.8562 -0.1847
vn 0.3769 -0.9263 0.0000
vn 0.1838 -0.9830 0.0000
vn -0.0266 -0.8562 0.5160
vn 0.1165 -0.9263 0.3584
vn 0.3248 -0.8562 0.4019
vn -0.2571 0.9415 -0.2181
vn -0.1928 -0.9180 -0.3466
vn 0.6526 0.7560 0.0504
vn -0.2909 0.3375 -0.8952
vn 0.0718 -0.9650 0.2522
vn 0.0959 0.9386 -0.3313
vn 0.0867 0.9772 -0.1936
vn 0.7335 0.6745 -0.0839
vn -0.4037 -0.9128 0.0619
vn -0.1578 0.5976 -0.7861
vn 0.8069 0.5845 0.0853
vn -0.4249 -0.9036 0.0546
vn 0.2405 -0.2949 0.9248
vn 0.0886 0.5923 -0.8008
vn 0.0127 -0.6596 0.7515
vn -0.4134 0.9060 -0.0911
vn 0.5514 -0.7699 -0.3212
vn -0.2976 -0.9542 0.0309
vn -0.4826 0.8562 -0.1847
vn 0.7202 -0.6325 -0.2851
vn 0.2074 -0.9531 0.2204
vn -0.2544 0.9231 -0.2885
vn 0.1015 -0.9948 0.0113
vn -0.3073 0.8527 0.4225
vn -0.5771 0.7912 0.2024
vn 0.3548 -0.9334 -0.0536
vn -0.4684 0.8417 0.2687
vn 0.1203 0.9190 0.3755
vn -0.0749 -0.9631 0.2585
vn -0.5321 0.7441 -0.4040
vn -0.2231 0.6919 0.6866
vn 0.1046 -0.9410 -0.3220
vn -0.3934 0.8803 0.2651
vn -0.1012 -0.7261 -0.6801
vn 0.0064 -0.9554 0.2953
vn 0.0787 0.9950 -0.0619
vn -0.1784 -0.9631 0.2014
vn -0.0696 -0.9596 0.2727
vn 0.1220 0.9891 -0.0819
vn -0.9157 -0.1636 -0.3672
vn -0.4021 -0.3138 -0.8601
vn 0.2772 0.9582 0.0714
vn -0.7006 0.5878 -0.4045
vn -0.5801 0.0939 -0.8091
vn 0.7263 0.1865 0.6616
vn -0.1274 -0.9849 -0.1175
vn -0.5590 0.8059 0.1952
vn -0.0396 -0.3519 -0.9352
vn -0.6057 -0.6995 -0.3792
vn 0.1858 0.9789 0.0853
vn 0.0827 0.9013 0.4251
vn -0.9076 -0.2047 -0.3666
vn 0.6268 0.7786 -0.0308
vn -0.1294 0.3574 0.9249
vn -0.4701 -0.8820 -0.0323
vn -0.2418 0.9703 0.0108
vn 0.7722 -0.4202 -0.4766
vn 0.3888 0.3087 0.8681
vn -0.2035 0.8653 0.4580
vn 0.8908 -0.0166 -0.4541
vn -0.3206 -0.9449 0.0658
vn 0.5058 0.5837 0.6352
vn -0.2580 0.9636 0.0704
vn -0.3507 -0.8897 0.2924
vn 0.5065 0.8356 0.2127
vn 0.1728 0.9300 -0.3243
vn 0.4222 0.7349 -0.5307
vn 0.4748 0.8585 -0.1937
vn 0.2650 0.8757 -0.4036
usemtl Material
s off
f 1//1 8//1 19//1 7//1
f 1//2 7//2 20//2 10//2
f 1//3 10//3 21//3 12//3
f 1//4 12//4 22//4 8//4
f 2//5 15//5 23//5 16//5
f 2//6 16//6 26//6 18//6
f 2//7 18//7 25//7 17//7
f 2//8 17//8 24//8 15//8
f 3//9 7//9 19//9 9//9
f 3//10 9//10 23//10 15//10
f 3//11 15//11 24//11 11//11
f 3//12 11//12 20//12 7//12
f 4//13 10//13 20//13 11//13
f 4//14 11//14 24//14 17//14
f 4//15 17//15 25//15 13//15
f 4//16 13//16 21//16 10//16
f 5//17 12//17 21//17 13//17
f 5//18 13//18 25//18 18//18
f 5//19 18//19 26//19 14//19
f 5//20 14//20 22//20 12//20
f 6//21 16//21 23//21 9//21
f 6//22 9//22 19//22 8//22
f 6//23 8//23 22//23 14//23
f 6//24 14//24 26//24 16//24
usemtl Material.001
f 27//25 40//25 39//25
f 28//26 40//26 42//26
f 27//27 39//27 44//27
f 27//28 44//28 46//28
f 27//29 46//29 43//29
f 28//30 42//30 49//30
f 29//31 41//31 51//31
f 30//32 45//32 53//32
f 31//33 47//33 55//33
f 32//34 48//34 57//34
f 28//35 49//35 52//35
f 29//36 51//36 54//36
f 30//37 53//37 56//37
f 31//38 55//38 58//38
f 32//39 57//39 50//39
f 33//40 59//40 64//40
f 34//41 60//41 66//41
f 61//42 67//42 86//42 84//42
f 62//43 68//43 77//43 75//43
f 37//44 63//44 65//44
f 65//45 68//45 38//45
f 63//46 68//46 103//46 104//46
f 63//47 36//47 68//47
f 68//48 67//48 130//48 131//48
f 68//49 62//49 67//49
f 62//50 35//50 67//50
f 67//51 66//51 38//51
f 67//52 61//52 66//52
f 66//53 61//53 92//53 90//53
f 66//54 64//54 124//54 125//54
f 66//55 60//55 64//55
f 60//56 33//56 64//56
f 64//57 65//57 114//57 116//57
f 64//58 59//58 65//58
f 59//59 37//59 65//59
f 50//60 63//60 37//60
f 50//61 57//61 63//61
f 57//62 36//62 63//62
f 58//63 62//63 36//63
f 55//64 62//64 70//64 71//64
f 55//65 35//65 62//65
f 56//66 61//66 35//66
f 56//67 53//67 61//67
f 53//68 34//68 61//68
f 54//69 60//69 34//69
f 51//70 60//70 97//70 98//70
f 51//71 33//71 60//71
f 52//72 59//72 33//72
f 52//73 49//73 59//73
f 49//74 37//74 59//74
f 57//75 58//75 36//75
f 57//76 48//76 58//76
f 48//77 31//77 58//77
f 55//78 56//78 35//78
f 55//79 47//79 56//79
f 47//80 30//80 56//80
f 53//81 54//81 34//81
f 53//82 45//82 54//82
f 45//83 29//83 54//83
f 51//84 52//84 33//84
f 51//85 41//85 52//85
f 41//86 28//86 52//86
f 49//87 50//87 37//87
f 49//88 42//88 50//88
f 42//89 32//89 50//89
f 43//90 48//90 32//90
f 43//91 46//91 48//91
f 46//92 31//92 48//92
f 46//93 47//93 31//93
f 46//94 44//94 47//94
f 44//95 30//95 47//95
f 44//96 45//96 30//96
f 44//97 39//97 45//97
f 39//98 29//98 45//98
f 42//99 43//99 32//99
f 42//100 40//100 43//100
f 40//101 27//101 43//101
f 39//102 41//102 29//102
f 39//103 40//103 41//103
f 40//104 28//104 41//104
f 71//105 70//105 73//105 74//105
f 58//106 55//106 71//106 69//106
f 62//107 58//107 69//107 70//107
f 72//108 74//108 73//108
f 69//109 71//109 74//109 72//109
f 70//110 69//110 72//110 73//110
f 75//111 77//111 80//111 78//111
f 68//112 36//112 76//112 77//112
f 36//113 62//113 75//113 76//113
f 78//114 80//114 83//114 81//114
f 77//115 76//115 79//115 80//115
f 76//116 75//116 78//116 79//116
f 82//117 81//117 83//117
f 80//118 79//118 82//118 83//118
f 79//119 78//119 81//119 82//119
f 84//120 86//120 89//120 87//120
f 67//121 35//121 85//121 86//121
f 35//122 61//122 84//122 85//122
f 88//123 87//123 89//123
f 86//124 85//124 88//124 89//124
f 85//125 84//125 87//125 88//125
f 90//126 92//126 95//126 93//126
f 61//127 34//127 91//127 92//127
f 34//128 66//128 90//128 91//128
f 95//129 94//129 93//129
f 92//130 91//130 94//130 95//130
f 91//131 90//131 93//131 94//131
f 98//132 97//132 100//132 101//132
f 54//133 51//133 98//133 96//133
f 60//134 54//134 96//134 97//134
f 99//135 101//135 100//135
f 96//136 98//136 101//136 99//136
f 97//137 96//137 99//137 100//137
f 104//138 103//138 106//138 107//138
f 65//139 63//139 104//139 102//139
f 68//140 65//140 102//140 103//140
f 107//141 106//141 109//141 110//141
f 102//142 104//142 107//142 105//142
f 103//143 102//143 105//143 106//143
f 110//144 109//144 112//144 113//144
f 105//145 107//145 110//145 108//145
f 106//146 105//146 108//146 109//146
f 111//147 113//147 112//147
f 108//148 110//148 113//148 111//148
f 109//149 108//149 111//149 112//149
f 116//150 114//150 117//150 119//150
f 38//151 64//151 116//151 115//151
f 65//152 38//152 115//152 114//152
f 119//153 117//153 120//153 122//153
f 115//154 116//154 119//154 118//154
f 114//155 115//155 118//155 117//155
f 122//156 120//156 121//156
f 118//157 119//157 122//157 121//157
f 117//158 118//158 121//158 120//158
f 125//159 124//159 127//159 128//159
f 38//160 66//160 125//160 123//160
f 64//161 38//161 123//161 124//161
f 128//162 127//162 126//162
f 123//163 125//163 128//163 126//163
f 124//164 123//164 126//164 127//164
f 131//165 130//165 133//165 134//165
f 38//166 68//166 131//166 129//166
f 67//167 38//167 129//167 130//167
f 134//168 133//168 136//168 137//168
f 129//169 131//169 134//169 132//169
f 130//170 129//170 132//170 133//170
f 137//171 136//171 135//171
f 132//172 134//172 137//172 135//172
f 133//173 132//173 135//173 136//173
